<svg width="38" height="38" viewBox="0 0 38 38" fill="none" xmlns="http://www.w3.org/2000/svg">
<g filter="url(#filter0_d_525_101)">
<path d="M9.38853 0L4 5.38853L6.75159 8.14013L13.5541 15.0573L6.75159 21.8599L4 24.4968L9.38853 30L12.1401 27.2484L19.0573 20.3312L25.8599 27.2484L28.4968 30L34 24.4968L31.2484 21.8599L24.3312 15.0573L31.2484 8.14013L34 5.38853L28.4968 0L25.8599 2.75159L19.0573 9.55414L12.1401 2.75159L9.38853 0Z" fill="#B2B2B2"/>
<path d="M11.433 26.5413L9.39602 28.5783L5.4217 24.5194L7.4435 22.5819L7.45118 22.5745L7.4587 22.567L14.2612 15.7644L14.9625 15.0632L14.2671 14.3562L7.46458 7.43895L7.46461 7.43893L7.4587 7.43302L5.41421 5.38854L9.38854 1.41421L11.433 3.4587L11.433 3.45872L11.439 3.46458L18.3562 10.2671L19.0632 10.9625L19.7644 10.2612L26.567 3.4587L26.5745 3.45118L26.5819 3.4435L28.5194 1.4217L32.5783 5.39602L30.5413 7.43302L23.6241 14.3502L22.9111 15.0633L23.63 15.7703L30.5472 22.5729L30.5472 22.5729L30.5565 22.5819L32.5706 24.512L28.512 28.5706L26.5819 26.5565L26.5819 26.5564L26.5729 26.5472L19.7703 19.63L19.0633 18.9111L18.3502 19.6241L11.433 26.5413Z" stroke="white" stroke-width="2"/>
</g>
<defs>
<filter id="filter0_d_525_101" x="0" y="0" width="38" height="38" filterUnits="userSpaceOnUse" color-interpolation-filters="sRGB">
<feFlood flood-opacity="0" result="BackgroundImageFix"/>
<feColorMatrix in="SourceAlpha" type="matrix" values="0 0 0 0 0 0 0 0 0 0 0 0 0 0 0 0 0 0 127 0" result="hardAlpha"/>
<feOffset dy="4"/>
<feGaussianBlur stdDeviation="2"/>
<feComposite in2="hardAlpha" operator="out"/>
<feColorMatrix type="matrix" values="0 0 0 0 0 0 0 0 0 0 0 0 0 0 0 0 0 0 0.25 0"/>
<feBlend mode="normal" in2="BackgroundImageFix" result="effect1_dropShadow_525_101"/>
<feBlend mode="normal" in="SourceGraphic" in2="effect1_dropShadow_525_101" result="shape"/>
</filter>
</defs>
</svg>
