<svg width="90" height="90" viewBox="0 0 90 90" fill="none" xmlns="http://www.w3.org/2000/svg">
<g clip-path="url(#clip0_33_119)">
<path d="M65.925 5.0625C59.625 1.8 52.5375 0 45 0C37.4625 0 30.375 1.8 24.075 5.0625C9.7875 12.6 0 27.675 0 45C0 62.325 9.7875 77.4 24.1875 84.9375C30.375 88.0875 37.4625 90 45 90C52.5375 90 59.5125 88.0875 65.8125 84.825C80.2125 77.4 90 62.325 90 45C90 27.675 80.2125 12.6 65.925 5.0625ZM4.5 45C4.5 30.2625 12.375 17.4375 24.1875 10.2375C29.925 6.75 36.5625 4.725 43.875 4.5L38.8125 41.2875L24.1875 52.65L9.3375 64.2375C6.3 58.5 4.5 51.975 4.5 45ZM65.925 79.65C59.7375 83.3625 52.65 85.5 45 85.5C37.35 85.5 30.15 83.3625 24.075 79.65C18.5625 76.3875 14.0625 71.8875 10.6875 66.4875L24.075 60.975L45 52.425L65.925 60.8625L79.425 66.375C76.05 71.8875 71.325 76.3875 65.925 79.65ZM65.925 52.65L51.4125 41.4L46.2375 4.5C53.325 4.725 60.075 6.75 65.8125 10.2375C77.625 17.325 85.5 30.2625 85.5 45C85.5 51.975 83.8125 58.5 80.6625 64.2375L65.925 52.65Z" fill="white"/>
</g>
<defs>
<clipPath id="clip0_33_119">
<rect width="90" height="90" fill="white"/>
</clipPath>
</defs>
</svg>
