<svg width="44" height="44" viewBox="0 0 44 44" fill="none" xmlns="http://www.w3.org/2000/svg">
<path d="M25.3843 40.614H20.1043C18.8547 40.6551 17.6399 40.1989 16.7262 39.3456C15.8125 38.4923 15.2746 37.3115 15.2305 36.0621V31.7641H18.6151V36.0621C18.6656 36.4108 18.8486 36.7267 19.1259 36.9441C19.4032 37.1615 19.7536 37.2638 20.1043 37.2297H25.3843V40.614Z" fill="white"/>
<path d="M43.9997 32.1533H40.615V4.55442C40.5646 4.20889 40.3841 3.89566 40.1105 3.67867C39.8368 3.46169 39.4907 3.35731 39.1427 3.38684H20.1043C19.7536 3.35275 19.4032 3.45502 19.1259 3.67244C18.8486 3.88985 18.6656 4.20571 18.6151 4.55442V8.85246H15.2305V4.55442C15.2746 3.30507 15.8125 2.12423 16.7262 1.27091C17.6399 0.417584 18.8547 -0.0385501 20.1043 0.00255572H39.1427C40.3894 -0.0339858 41.5999 0.424188 42.5099 1.27703C43.4199 2.12987 43.9555 3.30809 43.9997 4.55442V32.1533Z" fill="white"/>
<path d="M11.3552 29.9704L8.95215 27.5676L16.2291 20.3083L8.95215 13.049L11.3552 10.6461L18.6152 17.9223C19.2456 18.5564 19.5994 19.4142 19.5994 20.3083C19.5994 21.2023 19.2456 22.0601 18.6152 22.6942L11.3552 29.9704Z" fill="white"/>
<path d="M16.923 18.6161H0V22.0004H16.923V18.6161Z" fill="white"/>
<path d="M28.0246 43.9983C27.4483 44.0149 26.8747 43.913 26.3393 43.699C25.8039 43.4851 25.3182 43.1635 24.9121 42.7543C24.506 42.3451 24.1882 41.8569 23.9784 41.3199C23.7686 40.7829 23.6712 40.2086 23.6923 39.6325V9.17397C23.7531 7.83018 24.2452 6.5417 25.0956 5.49938C25.946 4.45705 27.1095 3.71631 28.4138 3.38684L38.5676 0.916316C39.2224 0.746986 39.9071 0.729078 40.5698 0.863953C41.2325 0.998827 41.8558 1.28294 42.3922 1.6947C42.8974 2.1017 43.3043 2.61734 43.5826 3.20326C43.8609 3.78919 44.0036 4.43033 43.9999 5.07899V35.5375C43.9511 36.8849 43.4709 38.1811 42.6301 39.2351C41.7892 40.2891 40.6321 41.0453 39.3292 41.3924L29.1753 43.846C28.7992 43.9427 28.4129 43.9938 28.0246 43.9983ZM39.7353 4.11446H39.3292L29.1753 6.56807C28.5975 6.72941 28.0845 7.06735 27.7083 7.53461C27.332 8.00187 27.1112 8.57506 27.0769 9.17397V39.6325C27.0657 39.7819 27.0871 39.9319 27.1397 40.0722C27.1923 40.2125 27.2748 40.3396 27.3815 40.4448C27.5281 40.531 27.691 40.5861 27.8599 40.6064C28.0288 40.6268 28.2001 40.6121 28.363 40.5632L38.5169 38.0927C39.0858 37.9321 39.5918 37.6011 39.967 37.1443C40.3422 36.6875 40.5684 36.1268 40.6153 35.5375V5.07899C40.6263 4.93216 40.6047 4.78472 40.5521 4.64723C40.4994 4.50973 40.417 4.38558 40.3107 4.28368C40.1428 4.16534 39.9405 4.10584 39.7353 4.11446Z" fill="white"/>
</svg>
