<svg width="40" height="40" viewBox="0 0 40 40" fill="none" xmlns="http://www.w3.org/2000/svg">
<g clip-path="url(#clip0_33_133)">
<path d="M20.0002 20C22.3076 20 24.5632 19.4135 26.4818 18.3147C28.4004 17.2159 29.8957 15.6541 30.7788 13.8268C31.6618 11.9996 31.8928 9.98891 31.4427 8.0491C30.9925 6.10929 29.8814 4.32746 28.2497 2.92894C26.6181 1.53041 24.5393 0.578004 22.2762 0.192152C20.0131 -0.1937 17.6673 0.00433283 15.5355 0.761209C13.4037 1.51809 11.5816 2.79981 10.2997 4.4443C9.01773 6.08879 8.3335 8.02219 8.3335 10C8.3335 12.6522 9.56266 15.1957 11.7506 17.0711C13.9385 18.9464 16.906 20 20.0002 20ZM20.0002 2.85715C21.6483 2.85715 23.2595 3.27607 24.6299 4.06094C26.0003 4.8458 27.0684 5.96136 27.6992 7.26655C28.3299 8.57174 28.4949 10.0079 28.1734 11.3935C27.8518 12.7791 27.0582 14.0518 25.8927 15.0508C24.7273 16.0497 23.2424 16.73 21.6259 17.0056C20.0094 17.2812 18.3339 17.1398 16.8111 16.5991C15.2884 16.0585 13.9869 15.143 13.0712 13.9684C12.1556 12.7937 11.6668 11.4127 11.6668 10C11.6668 8.1056 12.5448 6.28879 14.1076 4.94924C15.6704 3.6097 17.79 2.85715 20.0002 2.85715Z" fill="white"/>
<path d="M21.6667 22.8571H18.3333C13.471 22.8571 8.80788 24.5128 5.36971 27.4598C1.93154 30.4068 0 34.4037 0 38.5714C0 38.9503 0.175595 39.3137 0.488156 39.5816C0.800716 39.8495 1.22464 40 1.66667 40H38.3333C38.7754 40 39.1993 39.8495 39.5118 39.5816C39.8244 39.3137 40 38.9503 40 38.5714C40 34.4037 38.0685 30.4068 34.6303 27.4598C31.1921 24.5128 26.529 22.8571 21.6667 22.8571ZM3.43333 37.1429C3.84316 34.0009 5.58919 31.0986 8.3378 28.9903C11.0864 26.8821 14.6449 25.7158 18.3333 25.7143H21.6667C25.3551 25.7158 28.9136 26.8821 31.6622 28.9903C34.4108 31.0986 36.1568 34.0009 36.5667 37.1429H3.43333Z" fill="white"/>
</g>
<defs>
<clipPath id="clip0_33_133">
<rect width="40" height="40" fill="white"/>
</clipPath>
</defs>
</svg>
